<svg xmlns="http://www.w3.org/2000/svg">

<symbol id="mastercard" viewBox="0 0 40 24">
    <g clip-path="url(#clip0_1488_2519)">
    <path d="M25.083 2.56641H14.583V21.4352H25.083V2.56641Z" fill="#FF5F00"/>
    <path d="M15.2503 12C15.2487 10.1828 15.6605 8.38903 16.4545 6.7545C17.2486 5.11998 18.4041 3.68753 19.8336 2.5656C18.0634 1.17415 15.9374 0.308826 13.6986 0.0685353C11.4598 -0.171756 9.19856 0.222674 7.17335 1.20676C5.14814 2.19084 3.44065 3.72488 2.24606 5.6335C1.05147 7.54213 0.417969 9.74835 0.417969 12C0.417969 14.2516 1.05147 16.4579 2.24606 18.3665C3.44065 20.2751 5.14814 21.8091 7.17335 22.7932C9.19856 23.7773 11.4598 24.1717 13.6986 23.9314C15.9374 23.6912 18.0634 22.8258 19.8336 21.4344C18.4041 20.3124 17.2486 18.88 16.4545 17.2455C15.6605 15.6109 15.2487 13.8172 15.2503 12V12Z" fill="#EB001B"/>
    <path d="M39.2481 12C39.2481 14.2516 38.6147 16.4578 37.4202 18.3664C36.2257 20.2751 34.5182 21.8091 32.4931 22.7932C30.4679 23.7773 28.2067 24.1718 25.9679 23.9315C23.7292 23.6912 21.6032 22.8258 19.833 21.4344C21.2613 20.3113 22.4159 18.8786 23.2098 17.2444C24.0038 15.6101 24.4163 13.8169 24.4163 12C24.4163 10.1831 24.0038 8.38989 23.2098 6.75562C22.4159 5.12135 21.2613 3.68867 19.833 2.56561C21.6032 1.17415 23.7292 0.308821 25.9679 0.0685323C28.2067 -0.171756 30.4679 0.222691 32.4931 1.20679C34.5182 2.19088 36.2257 3.72492 37.4202 5.63355C38.6147 7.54218 39.2481 9.74839 39.2481 12V12Z" fill="#F79E1B"/>
    <path d="M38.1032 19.4384V19.0521H38.259V18.9734H37.8623V19.0521H38.0181V19.4384H38.1032ZM38.8734 19.4384V18.9727H38.7518L38.6119 19.293L38.472 18.9727H38.3504V19.4384H38.4362V19.0871L38.5674 19.39H38.6564L38.7876 19.0863V19.4384H38.8734Z" fill="#F79E1B"/>
    </g>
    <defs>
    <clipPath id="clip0_1488_2519">
    <rect width="38.8301" height="24" fill="white" transform="translate(0.417969)"/>
    </clipPath>
    </defs>
        
</symbol>

<symbol id="visa" viewBox="0 0 57 24">
    <g clip-path="url(#clip0_1488_2521)">
    <path d="M36.8817 3C32.9493 3 29.4351 5.03825 29.4351 8.80407C29.4351 13.1227 35.6676 13.421 35.6676 15.5906C35.6676 16.5041 34.6207 17.3219 32.8327 17.3219C30.2951 17.3219 28.3985 16.1793 28.3985 16.1793L27.5869 19.9794C27.5869 19.9794 29.7718 20.9446 32.6725 20.9446C36.9719 20.9446 40.355 18.8062 40.355 14.976C40.355 10.4126 34.0965 10.1231 34.0965 8.1094C34.0965 7.39378 34.9559 6.60969 36.7388 6.60969C38.7505 6.60969 40.3918 7.44069 40.3918 7.44069L41.186 3.77041C41.186 3.77041 39.4002 3 36.8817 3ZM0.903813 3.277L0.808594 3.83101C0.808594 3.83101 2.46297 4.13378 3.953 4.73776C5.87155 5.43034 6.00822 5.83352 6.33133 7.08579L9.85229 20.6589H14.5721L21.8435 3.277H17.1344L12.4622 15.095L10.5556 5.07752C10.3808 3.93102 9.49511 3.277 8.41101 3.277H0.903813ZM23.737 3.277L20.0429 20.6589H24.5334L28.2145 3.277H23.737ZM48.7819 3.277C47.6991 3.277 47.1254 3.85672 46.7044 4.86977L40.1256 20.6589H44.8347L45.7457 18.0274H51.4827L52.0367 20.6589H56.1918L52.5669 3.277H48.7819ZM49.3944 7.97306L50.7902 14.4956H47.0507L49.3944 7.97306Z" fill="#1434CB"/>
    </g>
    <defs>
    <clipPath id="clip0_1488_2521">
    <rect width="55.3832" height="24" fill="white" transform="translate(0.808594)"/>
    </clipPath>
    </defs>

</symbol>

<symbol id="mir" viewBox="0 0 67 24">
    <g clip-path="url(#clip0_1488_2630)">
    <path fill-rule="evenodd" clip-rule="evenodd" d="M6.26925 3.00307C6.85888 2.99954 8.61125 2.84172 9.35352 5.34687C9.85352 7.03437 10.65 9.79857 11.7429 13.6395H12.188C13.3601 9.59013 14.1653 6.82592 14.6035 5.34687C15.3535 2.81562 17.2285 3.00312 17.9785 3.00312L23.7649 3.00313V21.0031H17.8673V10.3954H17.4718L14.1841 21.0031H9.74685L6.45918 10.3875H6.0637V21.0031H0.166016V3.00313L6.26925 3.00307ZM32.2339 3.00313V13.6187H32.7044L36.7035 4.88959C37.4798 3.15247 39.1344 3.00313 39.1344 3.00313H44.8416V21.0031H38.8207V10.3875H38.3502L34.4295 19.1167C33.6532 20.8459 31.9202 21.0031 31.9202 21.0031H26.213V3.00313H32.2339ZM65.6524 11.5568C64.8125 13.9368 62.1751 15.6412 59.255 15.6412H52.941V21.0031H47.2155V11.5568H65.6524Z" fill="#0F754E"/>
    <path fill-rule="evenodd" clip-rule="evenodd" d="M59.531 3.00293H46.915C47.2153 7.01034 50.6664 10.4409 54.2389 10.4409H66.05C66.7316 7.11031 64.3852 3.00293 59.531 3.00293Z" fill="url(#paint0_linear_1488_2630)"/>
    </g>
    <defs>
    <linearGradient id="paint0_linear_1488_2630" x1="66.1658" y1="7.68176" x2="46.915" y2="7.68176" gradientUnits="userSpaceOnUse">
    <stop stop-color="#1F5CD7"/>
    <stop offset="1" stop-color="#02AEFF"/>
    </linearGradient>
    <clipPath id="clip0_1488_2630">
    <rect width="66" height="24" fill="white" transform="translate(0.166016)"/>
    </clipPath>
    </defs>

</symbol>

<symbol id="sber" viewBox="0 0 87 24">
        <g clip-path="url(#clip0_1488_2632)">
    <path d="M22.015 4.65479C22.5968 5.38206 23.0332 6.18206 23.3968 7.05479L12.7059 15.0548L8.26953 12.1457V8.72751L12.7059 11.5639L22.015 4.65479Z" fill="#21A038"/>
    <path d="M3.68798 11.9275C3.68798 11.782 3.68798 11.6366 3.68798 11.4911L0.99707 11.2729C0.99707 11.4911 0.99707 11.6366 0.99707 11.8548C0.99707 13.382 1.28798 14.982 1.8698 16.4366C2.45162 17.8911 3.32434 19.2002 4.41525 20.2911L6.30616 18.3275C5.43343 17.4548 4.77889 16.4366 4.34252 15.3457C3.90616 14.2548 3.68798 13.0911 3.68798 11.9275Z" fill="url(#paint0_linear_1488_2632)"/>
    <path d="M12.7065 2.76364C12.8519 2.76364 12.9974 2.76364 13.1428 2.76364L13.2883 0C13.0701 0 12.9246 0 12.7065 0C11.1792 0 9.65192 0.290909 8.2701 0.872727C6.81555 1.45455 5.57919 2.32727 4.48828 3.41818L6.37919 5.38182C7.17919 4.50909 8.19737 3.85455 9.28828 3.41818C10.3792 2.98182 11.5428 2.76364 12.7065 2.76364Z" fill="url(#paint1_linear_1488_2632)"/>
    <path d="M12.7058 21.0181C12.5604 21.0181 12.4149 21.0181 12.2695 21.0181L12.124 23.7817C12.3422 23.7817 12.4877 23.7817 12.7058 23.7817C14.2331 23.7817 15.7604 23.4908 17.2149 22.909C18.6695 22.3272 19.9058 21.4544 20.9968 20.3635L19.1058 18.3999C18.2331 19.2726 17.2877 19.9272 16.1968 20.3635C15.1058 20.7999 13.9422 21.0181 12.7058 21.0181Z" fill="url(#paint2_linear_1488_2632)"/>
    <path d="M17.797 4.36364L20.0515 2.69091C18.0151 0.945455 15.397 0 12.7061 0V2.76364C14.5242 2.76364 16.3424 3.27273 17.797 4.36364Z" fill="url(#paint3_linear_1488_2632)"/>
    <path d="M24.4876 11.9274C24.4876 11.2002 24.4149 10.4729 24.2695 9.81836L21.724 11.6365C21.724 11.7093 21.724 11.782 21.724 11.8547C21.724 13.1638 21.4331 14.4002 20.924 15.5638C20.4149 16.7274 19.6876 17.7456 18.7422 18.6184L20.5604 20.6547C21.7967 19.5638 22.7422 18.182 23.3967 16.6547C24.124 15.2002 24.4876 13.5274 24.4876 11.9274Z" fill="#21A038"/>
    <path d="M12.7058 21.0184C11.4694 21.0184 10.2331 20.7275 9.06942 20.2184C7.90579 19.7093 6.88761 18.9093 6.01488 17.9639L3.97852 19.782C5.06942 21.0184 6.45124 22.0366 7.90579 22.6911C9.43306 23.3457 11.0331 23.7093 12.6331 23.7093V21.0184H12.7058V21.0184Z" fill="url(#paint4_linear_1488_2632)"/>
    <path d="M6.6698 5.09105L4.85162 3.05469C3.61525 4.1456 2.6698 5.52741 2.01525 7.05469C1.36071 8.58196 0.99707 10.2547 0.99707 11.9274H3.68798C3.68798 10.6183 3.97889 9.38196 4.48798 8.21832C4.99707 6.98196 5.72434 5.96378 6.6698 5.09105Z" fill="url(#paint5_linear_1488_2632)"/>
    <path d="M68.7061 6.8365L72.0516 4.36377H60.8516V19.2729H72.1243V16.7274H64.1243V12.9456H70.9607V10.4729H64.1243V6.8365H68.7061Z" fill="#21A038"/>
    <path d="M53.2874 10.1092H49.3602V6.8365H55.6147L58.9602 4.36377H46.1602V19.2729H52.8511C56.6329 19.2729 58.742 17.6001 58.742 14.6183C58.742 11.7092 56.8511 10.1092 53.2874 10.1092ZM52.7056 16.7274H49.3602V12.582H52.7056C54.742 12.582 55.6874 13.3092 55.6874 14.6183C55.6874 16.0729 54.6693 16.7274 52.7056 16.7274Z" fill="#21A038"/>
    <path d="M80.3425 4.29102H74.2334V19.2001H77.4334V14.9819H80.3425C84.2698 14.9819 86.6698 12.9456 86.6698 9.60011C86.6698 6.32738 84.2698 4.29102 80.3425 4.29102ZM80.2698 12.5092H77.4334V6.83647H80.2698C82.3061 6.83647 83.4698 7.85465 83.4698 9.67283C83.4698 11.491 82.3061 12.5092 80.2698 12.5092Z" fill="#21A038"/>
    <path d="M41.3604 15.7091C40.5604 16.1455 39.6149 16.3637 38.6695 16.3637C35.8331 16.3637 33.7967 14.3273 33.7967 11.5637C33.7967 8.80005 35.8331 6.76369 38.6695 6.76369C39.6876 6.76369 40.7058 7.0546 41.5058 7.63642L43.7604 5.96369L43.6149 5.89096C42.3058 4.72733 40.5604 4.14551 38.524 4.14551C36.3422 4.14551 34.3785 4.87278 32.9967 6.18187C32.2695 6.83642 31.7604 7.70915 31.324 8.58187C30.9604 9.52733 30.7422 10.4728 30.7422 11.491C30.7422 12.5091 30.8876 13.4546 31.324 14.4001C31.6876 15.3455 32.2695 16.1455 32.9967 16.8728C34.3785 18.2546 36.3422 19.0546 38.524 19.0546C40.7785 19.0546 42.7422 18.2546 44.0513 16.8001L42.0149 15.2728L41.3604 15.7091Z" fill="#21A038"/>
    </g>
    <defs>
    <linearGradient id="paint0_linear_1488_2632" x1="4.98602" y1="19.9599" x2="1.95234" y2="11.3066" gradientUnits="userSpaceOnUse">
    <stop offset="0.14" stop-color="#F1E813"/>
    <stop offset="0.3" stop-color="#E6E418"/>
    <stop offset="0.58" stop-color="#C9DA26"/>
    <stop offset="0.89" stop-color="#A2CC39"/>
    </linearGradient>
    <linearGradient id="paint1_linear_1488_2632" x1="5.19228" y1="3.92487" x2="12.8481" y2="1.04604" gradientUnits="userSpaceOnUse">
    <stop offset="0.06" stop-color="#0FA7DF"/>
    <stop offset="0.54" stop-color="#0098F8"/>
    <stop offset="0.92" stop-color="#0290EA"/>
    </linearGradient>
    <linearGradient id="paint2_linear_1488_2632" x1="11.9651" y1="22.1171" x2="20.6045" y2="20.1912" gradientUnits="userSpaceOnUse">
    <stop offset="0.12" stop-color="#A2CC39"/>
    <stop offset="0.28" stop-color="#86C239"/>
    <stop offset="0.87" stop-color="#219F38"/>
    </linearGradient>
    <linearGradient id="paint3_linear_1488_2632" x1="12.149" y1="0.977236" x2="19.5427" y2="3.22866" gradientUnits="userSpaceOnUse">
    <stop offset="0.06" stop-color="#0290EA"/>
    <stop offset="0.79" stop-color="#0C89CA"/>
    </linearGradient>
    <linearGradient id="paint4_linear_1488_2632" x1="4.72128" y1="19.5116" x2="12.7767" y2="22.4822" gradientUnits="userSpaceOnUse">
    <stop offset="0.13" stop-color="#F1E813"/>
    <stop offset="0.3" stop-color="#EAE616"/>
    <stop offset="0.53" stop-color="#D8DF1F"/>
    <stop offset="0.8" stop-color="#BAD52D"/>
    <stop offset="0.98" stop-color="#A2CC39"/>
    </linearGradient>
    <linearGradient id="paint5_linear_1488_2632" x1="1.94994" y1="12.2044" x2="5.24871" y2="3.73701" gradientUnits="userSpaceOnUse">
    <stop offset="0.07" stop-color="#A2CC39"/>
    <stop offset="0.26" stop-color="#81C45E"/>
    <stop offset="0.92" stop-color="#0FA7DF"/>
    </linearGradient>
    <clipPath id="clip0_1488_2632">
    <rect width="85.6727" height="24" fill="white" transform="translate(0.99707)"/>
    </clipPath>
    </defs>
</symbol>

<symbol id="apple"  viewBox="0 0 57 24">
    <g clip-path="url(#clip0_1488_2581)">
    <path d="M10.905 3.09493C11.5711 2.26179 12.0231 1.14314 11.9039 0C10.9288 0.0484845 9.73894 0.643285 9.05006 1.47708C8.43152 2.19109 7.88406 3.35659 8.02678 4.4518C9.12134 4.54675 10.2149 3.90469 10.905 3.09493Z" fill="black"/>
    <path d="M11.8911 4.66552C10.3015 4.57084 8.94998 5.56768 8.19088 5.56768C7.43136 5.56768 6.26893 4.71324 5.01167 4.73627C3.37526 4.7603 1.85687 5.68554 1.02646 7.1571C-0.681547 10.1009 0.575717 14.4677 2.23666 16.8653C3.04326 18.0515 4.01534 19.3575 5.2962 19.3106C6.50641 19.2631 6.98076 18.527 8.45181 18.527C9.92179 18.527 10.3491 19.3106 11.6301 19.2869C12.9587 19.2631 13.7892 18.1001 14.5958 16.9128C15.5211 15.5606 15.8999 14.255 15.9237 14.1833C15.8999 14.1596 13.362 13.186 13.3385 10.2666C13.3145 7.82215 15.331 6.65944 15.4259 6.58734C14.2872 4.90314 12.5079 4.71324 11.8911 4.66552Z" fill="black"/>
    <path d="M25.7322 1.35743C29.1871 1.35743 31.5929 3.73892 31.5929 7.20619C31.5929 10.6858 29.1376 13.0797 25.6456 13.0797H21.8204V19.1629H19.0566V1.35742H25.7322V1.35743ZM21.8204 10.7599H24.9916C27.3978 10.7599 28.7673 9.4644 28.7673 7.21857C28.7673 4.97298 27.3978 3.68965 25.0039 3.68965H21.8204V10.7599Z" fill="black"/>
    <path d="M32.3154 15.4737C32.3154 13.2031 34.0553 11.8089 37.1403 11.6361L40.6937 11.4264V10.427C40.6937 8.98329 39.7189 8.11956 38.0904 8.11956C36.5477 8.11956 35.5852 8.85976 35.351 10.0198H32.8338C32.9818 7.6752 34.9806 5.94775 38.1889 5.94775C41.3354 5.94775 43.3465 7.61356 43.3465 10.2171V19.1631H40.7923V17.0284H40.7309C39.9783 18.4721 38.337 19.3851 36.6343 19.3851C34.0924 19.3851 32.3154 17.8057 32.3154 15.4737ZM40.6937 14.3015V13.2774L37.4978 13.4747C35.906 13.5859 35.0054 14.2892 35.0054 15.3997C35.0054 16.5348 35.9431 17.2752 37.3745 17.2752C39.2376 17.2752 40.6937 15.9919 40.6937 14.3015Z" fill="black"/>
    <path d="M45.7579 23.9384V21.7789C45.955 21.8282 46.3991 21.8282 46.6214 21.8282C47.8553 21.8282 48.5217 21.3101 48.9287 19.9775C48.9287 19.9527 49.1633 19.1878 49.1633 19.1754L44.4746 6.18213H47.3616L50.6442 16.7446H50.6932L53.9758 6.18213H56.7891L51.9271 19.8416C50.817 22.9882 49.5337 24 46.8437 24C46.6214 24 45.955 23.9752 45.7579 23.9384Z" fill="black"/>
    </g>
    <defs>
    <clipPath id="clip0_1488_2581">
    <rect width="56.5764" height="24" fill="white" transform="translate(0.211914)"/>
    </clipPath>
    </defs>
        
</symbol>

<symbol id="google" viewBox="0 0 62 24">
    <g clip-path="url(#clip0_1488_2583)">
    <path d="M29.1313 11.6725V18.7485H26.8857V1.2749H32.8389C34.3476 1.2749 35.6342 1.77783 36.6868 2.78367C37.7628 3.78951 38.3008 5.01757 38.3008 6.46785C38.3008 7.95323 37.7628 9.18129 36.6868 10.1754C35.6459 11.1696 34.3593 11.6608 32.8389 11.6608H29.1313V11.6725ZM29.1313 3.42694V9.52046H32.8857C33.7746 9.52046 34.5231 9.21637 35.1079 8.61989C35.7044 8.0234 36.0084 7.29826 36.0084 6.47955C36.0084 5.67253 35.7044 4.95909 35.1079 4.3626C34.5231 3.74273 33.7863 3.43863 32.8857 3.43863H29.1313V3.42694Z" fill="#3C4043"/>
    <path d="M44.1725 6.39795C45.8333 6.39795 47.1432 6.84239 48.1023 7.73127C49.0614 8.62016 49.5409 9.83653 49.5409 11.3804V18.7488H47.4005V17.0879H47.307C46.383 18.4564 45.1432 19.1347 43.5993 19.1347C42.2777 19.1347 41.1783 18.7487 40.2894 17.9651C39.4005 17.1815 38.9561 16.2108 38.9561 15.0412C38.9561 13.8014 39.4239 12.819 40.3596 12.0938C41.2952 11.357 42.5467 10.9944 44.1023 10.9944C45.4356 10.9944 46.535 11.24 47.3888 11.7313V11.2166C47.3888 10.433 47.0847 9.77804 46.4649 9.22834C45.845 8.67863 45.1198 8.40963 44.2894 8.40963C43.0379 8.40963 42.0438 8.93594 41.3186 10.0003L39.342 8.76051C40.4297 7.18157 42.0438 6.39795 44.1725 6.39795ZM41.2719 15.0763C41.2719 15.661 41.5175 16.1523 42.0204 16.5382C42.5116 16.9242 43.0964 17.123 43.7631 17.123C44.7105 17.123 45.5526 16.7722 46.2894 16.0704C47.0263 15.3687 47.4005 14.5499 47.4005 13.6026C46.6988 13.0529 45.728 12.7722 44.4765 12.7722C43.5643 12.7722 42.804 12.9944 42.1958 13.4271C41.5759 13.8833 41.2719 14.433 41.2719 15.0763Z" fill="#3C4043"/>
    <path d="M61.751 6.78369L54.2657 24H51.9499L54.7335 17.9766L49.7979 6.78369H52.2423L55.7978 15.3684H55.8446L59.3066 6.78369H61.751Z" fill="#3C4043"/>
    <path d="M20.1995 10.2456C20.1995 9.51341 20.134 8.81284 20.0124 8.13916H10.5996V11.9988L16.0206 11.9999C15.8007 13.2841 15.0931 14.3789 14.0089 15.1087V17.6127H17.2358C19.12 15.8689 20.1995 13.2911 20.1995 10.2456Z" fill="#4285F4"/>
    <path d="M14.01 15.109C13.1117 15.7149 11.955 16.0693 10.6018 16.0693C7.98777 16.0693 5.77024 14.3079 4.97609 11.9336H1.64746V14.5161C3.29657 17.7886 6.68603 20.0342 10.6018 20.0342C13.3082 20.0342 15.5819 19.1441 17.2368 17.612L14.01 15.109Z" fill="#34A853"/>
    <path d="M4.66271 10.0175C4.66271 9.35079 4.77382 8.70635 4.97615 8.10051V5.51807H1.64752C0.965653 6.87127 0.582031 8.39875 0.582031 10.0175C0.582031 11.6362 0.966822 13.1636 1.64752 14.5168L4.97615 11.9344C4.77382 11.3286 4.66271 10.6841 4.66271 10.0175Z" fill="#FABB05"/>
    <path d="M10.6018 3.96489C12.079 3.96489 13.4018 4.47366 14.4462 5.4678L17.3058 2.61051C15.569 0.992977 13.3047 0 10.6018 0C6.6872 0 3.29657 2.2456 1.64746 5.51809L4.97609 8.10053C5.77024 5.72628 7.98777 3.96489 10.6018 3.96489Z" fill="#E94235"/>
    </g>
    <defs>
    <clipPath id="clip0_1488_2583">
    <rect width="61.1694" height="24" fill="white" transform="translate(0.582031)"/>
    </clipPath>
    </defs>
        
</symbol>

</svg>