<svg xmlns="http://www.w3.org/2000/svg"><symbol id="mastercard" viewBox="0 0 40 24"><g clip-path="url(#clip0_1488_2519)"><path d="M25.083 2.566h-10.5v18.87h10.5V2.565z" fill="#FF5F00"/><path d="M15.25 12a11.98 11.98 0 014.584-9.434 12 12 0 100 18.868A11.98 11.98 0 0115.25 12z" fill="#EB001B"/><path d="M39.248 12a12 12 0 01-19.415 9.434 12.002 12.002 0 000-18.868A12 12 0 0139.248 12zm-1.145 7.438v-.386h.156v-.079h-.397v.08h.156v.385h.085zm.77 0v-.465h-.121l-.14.32-.14-.32h-.122v.465h.086v-.35l.131.302h.09l.13-.304v.352h.086z" fill="#F79E1B"/></g><defs><clipPath id="clip0_1488_2519"><path fill="#fff" transform="translate(.418)" d="M0 0h38.83v24H0z"/></clipPath></defs></symbol><symbol id="visa" viewBox="0 0 57 24"><g clip-path="url(#clip0_1488_2521)"><path d="M36.882 3c-3.933 0-7.447 2.038-7.447 5.804 0 4.319 6.233 4.617 6.233 6.787 0 .913-1.047 1.73-2.835 1.73-2.538 0-4.434-1.142-4.434-1.142l-.812 3.8s2.185.966 5.085.966c4.3 0 7.683-2.139 7.683-5.969 0-4.563-6.258-4.853-6.258-6.867 0-.715.859-1.5 2.642-1.5 2.012 0 3.653.832 3.653.832l.794-3.67S39.4 3 36.882 3zM.904 3.277l-.095.554s1.654.303 3.144.907c1.919.692 2.055 1.096 2.378 2.348l3.521 13.573h4.72l7.271-17.382h-4.709l-4.672 11.818-1.906-10.017C10.38 3.93 9.496 3.277 8.41 3.277H.904zm22.833 0l-3.694 17.382h4.49l3.681-17.382h-4.477zm25.045 0c-1.083 0-1.657.58-2.078 1.593l-6.578 15.789h4.709l.91-2.632h5.738l.554 2.632h4.155L52.567 3.277h-3.785zm.612 4.696l1.396 6.523h-3.74l2.344-6.523z" fill="#1434CB"/></g><defs><clipPath id="clip0_1488_2521"><path fill="#fff" transform="translate(.809)" d="M0 0h55.383v24H0z"/></clipPath></defs></symbol><symbol id="mir" viewBox="0 0 67 24"><g clip-path="url(#clip0_1284_2464)" fill-rule="evenodd" clip-rule="evenodd"><path d="M8.805 4.004C9.59 4 11.927 3.79 12.917 7.13c.667 2.25 1.729 5.936 3.186 11.057h.593c1.563-5.4 2.637-9.085 3.221-11.057 1-3.375 3.5-3.125 4.5-3.125h7.715v24H24.27V13.86h-.528l-4.383 14.144H13.44L9.058 13.85H8.53v14.154H.667v-24h8.138zm34.62 0v14.154h.627L49.383 6.52c1.035-2.316 3.24-2.515 3.24-2.515h7.61v24h-8.027V13.85h-.628l-5.226 11.64c-1.035 2.306-3.346 2.515-3.346 2.515h-7.61v-24h8.028zM87.981 15.41c-1.12 3.173-4.636 5.446-8.53 5.446h-8.418v7.15H63.4V15.408h24.582z" fill="#0F754E"/><path d="M79.82 4.004H63c.4 5.343 5.002 9.917 9.765 9.917h15.748c.91-4.44-2.22-9.917-8.692-9.917z" fill="url(#paint0_linear_1284_2464)"/></g><defs><linearGradient id="paint0_linear_1284_2464" x1="88.667" y1="10.242" x2="62.999" y2="10.242" gradientUnits="userSpaceOnUse"><stop stop-color="#1F5CD7"/><stop offset="1" stop-color="#02AEFF"/></linearGradient><clipPath id="clip0_1284_2464"><path fill="#fff" transform="translate(.667)" d="M0 0h88v32H0z"/></clipPath></defs></symbol><symbol id="sber" viewBox="0 0 87 24"><g clip-path="url(#clip0_1488_2632)"><path d="M22.015 4.655c.582.727 1.018 1.527 1.382 2.4l-10.691 8-4.436-2.91V8.729l4.436 2.836 9.309-6.91z" fill="#21A038"/><path d="M3.688 11.928v-.437l-2.69-.218v.582c0 1.527.29 3.127.872 4.582a11.493 11.493 0 002.545 3.854l1.891-1.963a8.86 8.86 0 01-1.963-2.982 9.212 9.212 0 01-.655-3.418z" fill="url(#paint0_linear_1488_2632)"/><path d="M12.707 2.764h.436L13.288 0h-.582C11.18 0 9.652.29 8.27.873c-1.454.582-2.69 1.454-3.782 2.545L6.38 5.382c.8-.873 1.818-1.527 2.91-1.964a9.212 9.212 0 013.418-.654z" fill="url(#paint1_linear_1488_2632)"/><path d="M12.706 21.018h-.436l-.146 2.764h.582c1.527 0 3.054-.291 4.509-.873 1.454-.582 2.69-1.455 3.782-2.546L19.106 18.4c-.873.873-1.818 1.527-2.91 1.963a9.311 9.311 0 01-3.49.655z" fill="url(#paint2_linear_1488_2632)"/><path d="M17.797 4.364l2.255-1.673C18.015.945 15.396 0 12.706 0v2.764c1.818 0 3.636.509 5.091 1.6z" fill="url(#paint3_linear_1488_2632)"/><path d="M24.488 11.927c0-.727-.073-1.454-.218-2.109l-2.546 1.819v.218c0 1.309-.29 2.545-.8 3.709a9.06 9.06 0 01-2.182 3.054l1.818 2.037c1.237-1.091 2.182-2.473 2.837-4 .727-1.455 1.09-3.128 1.09-4.728z" fill="#21A038"/><path d="M12.706 21.018c-1.237 0-2.473-.29-3.637-.8-1.163-.509-2.181-1.309-3.054-2.254l-2.036 1.818a11.767 11.767 0 003.927 2.91c1.527.654 3.127 1.017 4.727 1.017v-2.69h.073z" fill="url(#paint4_linear_1488_2632)"/><path d="M6.67 5.091L4.852 3.055c-1.237 1.09-2.182 2.472-2.837 4a12.446 12.446 0 00-1.018 4.872h2.691c0-1.309.29-2.545.8-3.709A8.67 8.67 0 016.67 5.091z" fill="url(#paint5_linear_1488_2632)"/><path d="M68.706 6.837l3.346-2.473h-11.2v14.909h11.272v-2.546h-8v-3.781h6.837v-2.473h-6.837V6.836h4.582zM53.287 10.11H49.36V6.836h6.255l3.345-2.473h-12.8v14.909h6.691c3.782 0 5.891-1.673 5.891-4.655 0-2.909-1.89-4.509-5.455-4.509zm-.581 6.617H49.36v-4.145h3.346c2.036 0 2.981.727 2.981 2.036 0 1.455-1.018 2.11-2.981 2.11zM80.343 4.291h-6.11v14.91h3.2v-4.22h2.91c3.927 0 6.327-2.035 6.327-5.38 0-3.274-2.4-5.31-6.328-5.31zm-.073 8.218h-2.837V6.836h2.837c2.036 0 3.2 1.019 3.2 2.837 0 1.818-1.164 2.836-3.2 2.836zM41.36 15.71c-.8.435-1.745.654-2.69.654-2.837 0-4.873-2.037-4.873-4.8 0-2.764 2.036-4.8 4.873-4.8 1.018 0 2.036.29 2.836.872l2.254-1.672-.145-.073c-1.31-1.164-3.055-1.745-5.091-1.745-2.182 0-4.145.727-5.527 2.036-.727.654-1.237 1.527-1.673 2.4-.364.945-.582 1.89-.582 2.909 0 1.018.146 1.964.582 2.91.364.944.945 1.744 1.673 2.472 1.382 1.382 3.345 2.182 5.527 2.182 2.255 0 4.218-.8 5.527-2.255l-2.036-1.527-.655.436z" fill="#21A038"/></g><defs><linearGradient id="paint0_linear_1488_2632" x1="4.986" y1="19.96" x2="1.952" y2="11.307" gradientUnits="userSpaceOnUse"><stop offset=".14" stop-color="#F1E813"/><stop offset=".3" stop-color="#E6E418"/><stop offset=".58" stop-color="#C9DA26"/><stop offset=".89" stop-color="#A2CC39"/></linearGradient><linearGradient id="paint1_linear_1488_2632" x1="5.192" y1="3.925" x2="12.848" y2="1.046" gradientUnits="userSpaceOnUse"><stop offset=".06" stop-color="#0FA7DF"/><stop offset=".54" stop-color="#0098F8"/><stop offset=".92" stop-color="#0290EA"/></linearGradient><linearGradient id="paint2_linear_1488_2632" x1="11.965" y1="22.117" x2="20.605" y2="20.191" gradientUnits="userSpaceOnUse"><stop offset=".12" stop-color="#A2CC39"/><stop offset=".28" stop-color="#86C239"/><stop offset=".87" stop-color="#219F38"/></linearGradient><linearGradient id="paint3_linear_1488_2632" x1="12.149" y1=".977" x2="19.543" y2="3.229" gradientUnits="userSpaceOnUse"><stop offset=".06" stop-color="#0290EA"/><stop offset=".79" stop-color="#0C89CA"/></linearGradient><linearGradient id="paint4_linear_1488_2632" x1="4.721" y1="19.512" x2="12.777" y2="22.482" gradientUnits="userSpaceOnUse"><stop offset=".13" stop-color="#F1E813"/><stop offset=".3" stop-color="#EAE616"/><stop offset=".53" stop-color="#D8DF1F"/><stop offset=".8" stop-color="#BAD52D"/><stop offset=".98" stop-color="#A2CC39"/></linearGradient><linearGradient id="paint5_linear_1488_2632" x1="1.95" y1="12.204" x2="5.249" y2="3.737" gradientUnits="userSpaceOnUse"><stop offset=".07" stop-color="#A2CC39"/><stop offset=".26" stop-color="#81C45E"/><stop offset=".92" stop-color="#0FA7DF"/></linearGradient><clipPath id="clip0_1488_2632"><path fill="#fff" transform="translate(.997)" d="M0 0h85.673v24H0z"/></clipPath></defs></symbol><symbol id="apple" viewBox="0 0 57 24"><g clip-path="url(#clip0_1488_2581)"><path d="M10.905 3.095c.666-.833 1.118-1.952.999-3.095-.975.048-2.165.643-2.854 1.477-.618.714-1.166 1.88-1.023 2.975 1.094.095 2.188-.547 2.878-1.357zm.986 1.571c-1.59-.095-2.941.902-3.7.902-.76 0-1.922-.855-3.18-.832-1.636.024-3.154.95-3.985 2.421-1.708 2.944-.45 7.31 1.21 9.708.807 1.187 1.78 2.493 3.06 2.446 1.21-.048 1.685-.784 3.156-.784 1.47 0 1.897.784 3.178.76 1.329-.024 2.16-1.187 2.966-2.374.925-1.352 1.304-2.658 1.328-2.73-.024-.023-2.562-.997-2.585-3.916-.024-2.445 1.992-3.608 2.087-3.68-1.139-1.684-2.918-1.874-3.535-1.921zm13.841-3.309c3.455 0 5.86 2.382 5.86 5.85 0 3.479-2.454 5.873-5.946 5.873H21.82v6.083h-2.763V1.357h6.675zM21.82 10.76h3.172c2.406 0 3.775-1.296 3.775-3.541 0-2.246-1.37-3.53-3.763-3.53H21.82v7.07zm10.495 4.714c0-2.27 1.74-3.665 4.825-3.838l3.554-.21v-.999c0-1.444-.975-2.307-2.604-2.307-1.542 0-2.505.74-2.739 1.9h-2.517c.148-2.345 2.147-4.072 5.355-4.072 3.146 0 5.157 1.666 5.157 4.27v8.945h-2.554v-2.135h-.061c-.753 1.444-2.394 2.357-4.097 2.357-2.542 0-4.319-1.58-4.319-3.911zm8.379-1.172v-1.025l-3.196.198c-1.592.11-2.493.814-2.493 1.925 0 1.135.938 1.875 2.37 1.875 1.863 0 3.319-1.283 3.319-2.973zm5.064 9.636v-2.16c.197.05.641.05.863.05 1.234 0 1.9-.518 2.308-1.85 0-.025.234-.79.234-.803L44.475 6.182h2.887l3.282 10.563h.05l3.282-10.563h2.813l-4.862 13.66C50.817 22.988 49.534 24 46.844 24c-.223 0-.889-.025-1.086-.062z"/></g><defs><clipPath id="clip0_1488_2581"><path fill="#fff" transform="translate(.212)" d="M0 0h56.576v24H0z"/></clipPath></defs></symbol><symbol id="google" viewBox="0 0 62 24"><g clip-path="url(#clip0_1488_2583)"><path d="M29.131 11.672v7.076h-2.245V1.276h5.953c1.509 0 2.795.503 3.848 1.509C37.763 3.79 38.3 5.018 38.3 6.468c0 1.485-.538 2.713-1.614 3.707-1.041.995-2.328 1.486-3.848 1.486H29.13v.011zm0-8.245V9.52h3.755c.889 0 1.637-.304 2.222-.9.596-.597.9-1.322.9-2.14 0-.807-.304-1.52-.9-2.117-.585-.62-1.322-.924-2.222-.924H29.13v-.012zm15.041 2.971c1.661 0 2.971.444 3.93 1.333.96.89 1.439 2.106 1.439 3.65v7.368H47.4v-1.661h-.094c-.924 1.368-2.164 2.047-3.708 2.047-1.321 0-2.42-.386-3.31-1.17-.889-.784-1.333-1.754-1.333-2.924 0-1.24.468-2.222 1.404-2.947.935-.737 2.187-1.1 3.742-1.1 1.334 0 2.433.246 3.287.737v-.514c0-.784-.304-1.439-.924-1.989a3.17 3.17 0 00-2.176-.818c-1.251 0-2.245.526-2.97 1.59l-1.977-1.24c1.088-1.578 2.702-2.362 4.83-2.362zm-2.9 8.678c0 .585.245 1.076.748 1.462a2.749 2.749 0 001.743.585c.948 0 1.79-.35 2.526-1.053.737-.701 1.111-1.52 1.111-2.467-.701-.55-1.672-.83-2.923-.83-.913 0-1.673.221-2.281.654-.62.456-.924 1.006-.924 1.65zm20.479-8.292L54.266 24H51.95l2.783-6.023-4.935-11.193h2.444l3.556 8.584h.047l3.462-8.584h2.444z" fill="#3C4043"/><path d="M20.2 10.246c0-.733-.066-1.433-.188-2.107H10.6V12h5.42a4.644 4.644 0 01-2.011 3.11v2.504h3.227c1.884-1.744 2.963-4.322 2.963-7.367z" fill="#4285F4"/><path d="M14.01 15.109c-.898.606-2.055.96-3.408.96-2.614 0-4.832-1.761-5.626-4.135H1.647v2.582a10.02 10.02 0 008.955 5.518c2.706 0 4.98-.89 6.635-2.422l-3.227-2.503z" fill="#34A853"/><path d="M4.663 10.018c0-.667.11-1.312.313-1.917V5.518H1.648a9.967 9.967 0 00-1.066 4.5c0 1.618.385 3.146 1.066 4.499l3.328-2.583a6.042 6.042 0 01-.313-1.916z" fill="#FABB05"/><path d="M10.602 3.965c1.477 0 2.8.509 3.844 1.503l2.86-2.857C15.569.993 13.305 0 10.602 0a10.022 10.022 0 00-8.955 5.518l3.33 2.583c.793-2.375 3.01-4.136 5.625-4.136z" fill="#E94235"/></g><defs><clipPath id="clip0_1488_2583"><path fill="#fff" transform="translate(.582)" d="M0 0h61.169v24H0z"/></clipPath></defs></symbol></svg>