<svg width="57" height="24" fill="none" xmlns="http://www.w3.org/2000/svg"><g clip-path="url(#clip0_1488_2581)" fill="#000"><path d="M10.905 3.095c.666-.833 1.118-1.952.999-3.095-.975.048-2.165.643-2.854 1.477-.618.714-1.166 1.88-1.023 2.975 1.094.095 2.188-.547 2.878-1.357zm.986 1.571c-1.59-.095-2.941.902-3.7.902-.76 0-1.922-.855-3.18-.832-1.636.024-3.154.95-3.985 2.421-1.708 2.944-.45 7.31 1.21 9.708.807 1.187 1.78 2.493 3.06 2.446 1.21-.048 1.685-.784 3.156-.784 1.47 0 1.897.784 3.178.76 1.329-.024 2.16-1.187 2.966-2.374.925-1.352 1.304-2.658 1.328-2.73-.024-.023-2.562-.997-2.585-3.916-.024-2.445 1.992-3.608 2.087-3.68-1.139-1.684-2.918-1.874-3.535-1.921zm13.841-3.309c3.455 0 5.86 2.382 5.86 5.85 0 3.479-2.454 5.873-5.946 5.873H21.82v6.083h-2.763V1.357h6.675zM21.82 10.76h3.172c2.406 0 3.775-1.296 3.775-3.541 0-2.246-1.37-3.53-3.763-3.53H21.82v7.07zm10.495 4.714c0-2.27 1.74-3.665 4.825-3.838l3.554-.21v-.999c0-1.444-.975-2.307-2.604-2.307-1.542 0-2.505.74-2.739 1.9h-2.517c.148-2.345 2.147-4.072 5.355-4.072 3.146 0 5.157 1.666 5.157 4.27v8.945h-2.554v-2.135h-.061c-.753 1.444-2.394 2.357-4.097 2.357-2.542 0-4.319-1.58-4.319-3.911zm8.379-1.172v-1.025l-3.196.198c-1.592.11-2.493.814-2.493 1.925 0 1.135.938 1.875 2.37 1.875 1.863 0 3.319-1.283 3.319-2.973zm5.064 9.636v-2.16c.197.05.641.05.863.05 1.234 0 1.9-.518 2.308-1.85 0-.025.234-.79.234-.803L44.475 6.182h2.887l3.282 10.563h.05l3.282-10.563h2.813l-4.862 13.66C50.817 22.988 49.534 24 46.844 24c-.223 0-.889-.025-1.086-.062z"/></g><defs><clipPath id="clip0_1488_2581"><path fill="#fff" transform="translate(.212)" d="M0 0h56.576v24H0z"/></clipPath></defs></svg>