<svg width="62" height="24" fill="none" xmlns="http://www.w3.org/2000/svg"><g clip-path="url(#clip0_1488_2583)"><path d="M29.131 11.672v7.076h-2.245V1.276h5.953c1.509 0 2.795.503 3.848 1.509C37.763 3.79 38.3 5.018 38.3 6.468c0 1.485-.538 2.713-1.614 3.707-1.041.995-2.328 1.486-3.848 1.486H29.13v.011zm0-8.245V9.52h3.755c.889 0 1.637-.304 2.222-.9.596-.597.9-1.322.9-2.14 0-.807-.304-1.52-.9-2.117-.585-.62-1.322-.924-2.222-.924H29.13v-.012zm15.041 2.971c1.661 0 2.971.444 3.93 1.333.96.89 1.439 2.106 1.439 3.65v7.368H47.4v-1.661h-.094c-.924 1.368-2.164 2.047-3.708 2.047-1.321 0-2.42-.386-3.31-1.17-.889-.784-1.333-1.754-1.333-2.924 0-1.24.468-2.222 1.404-2.947.935-.737 2.187-1.1 3.742-1.1 1.334 0 2.433.246 3.287.737v-.514c0-.784-.304-1.439-.924-1.989a3.17 3.17 0 00-2.176-.818c-1.251 0-2.245.526-2.97 1.59l-1.977-1.24c1.088-1.578 2.702-2.362 4.83-2.362zm-2.9 8.678c0 .585.245 1.076.748 1.462a2.749 2.749 0 001.743.585c.948 0 1.79-.35 2.526-1.053.737-.701 1.111-1.52 1.111-2.467-.701-.55-1.672-.83-2.923-.83-.913 0-1.673.221-2.281.654-.62.456-.924 1.006-.924 1.65zm20.479-8.292L54.266 24H51.95l2.783-6.023-4.935-11.193h2.444l3.556 8.584h.047l3.462-8.584h2.444z" fill="#3C4043"/><path d="M20.2 10.246c0-.733-.066-1.433-.188-2.107H10.6V12h5.42a4.644 4.644 0 01-2.011 3.11v2.504h3.227c1.884-1.744 2.963-4.322 2.963-7.367z" fill="#4285F4"/><path d="M14.01 15.109c-.898.606-2.055.96-3.408.96-2.614 0-4.832-1.761-5.626-4.135H1.647v2.582a10.02 10.02 0 008.955 5.518c2.706 0 4.98-.89 6.635-2.422l-3.227-2.503z" fill="#34A853"/><path d="M4.663 10.018c0-.667.11-1.312.313-1.917V5.518H1.648a9.967 9.967 0 00-1.066 4.5c0 1.618.385 3.146 1.066 4.499l3.328-2.583a6.042 6.042 0 01-.313-1.916z" fill="#FABB05"/><path d="M10.602 3.965c1.477 0 2.8.509 3.844 1.503l2.86-2.857C15.569.993 13.305 0 10.602 0a10.022 10.022 0 00-8.955 5.518l3.33 2.583c.793-2.375 3.01-4.136 5.625-4.136z" fill="#E94235"/></g><defs><clipPath id="clip0_1488_2583"><path fill="#fff" transform="translate(.582)" d="M0 0h61.169v24H0z"/></clipPath></defs></svg>