<svg width="40" height="24" fill="none" xmlns="http://www.w3.org/2000/svg"><g clip-path="url(#clip0_1488_2519)"><path d="M25.083 2.566h-10.5v18.87h10.5V2.565z" fill="#FF5F00"/><path d="M15.25 12a11.98 11.98 0 014.584-9.434 12 12 0 100 18.868A11.98 11.98 0 0115.25 12z" fill="#EB001B"/><path d="M39.248 12a12 12 0 01-19.415 9.434 12.002 12.002 0 000-18.868A12 12 0 0139.248 12zm-1.145 7.438v-.386h.156v-.079h-.397v.08h.156v.385h.085zm.77 0v-.465h-.121l-.14.32-.14-.32h-.122v.465h.086v-.35l.131.302h.09l.13-.304v.352h.086z" fill="#F79E1B"/></g><defs><clipPath id="clip0_1488_2519"><path fill="#fff" transform="translate(.418)" d="M0 0h38.83v24H0z"/></clipPath></defs></svg>