<svg width="67" height="24" fill="none" xmlns="http://www.w3.org/2000/svg"><g clip-path="url(#clip0_1488_2630)" fill-rule="evenodd" clip-rule="evenodd"><path d="M6.27 3.003C6.858 3 8.61 2.842 9.353 5.347c.5 1.687 1.296 4.452 2.389 8.292h.445a1656.92 1656.92 0 012.415-8.292c.75-2.531 2.626-2.344 3.376-2.344h5.786v18h-5.898V10.395h-.395l-3.288 10.608H9.747L6.459 10.387h-.395v10.616H.166v-18h6.103zm25.964 0V13.62h.47l4-8.73c.776-1.737 2.43-1.886 2.43-1.886h5.708v18H38.82V10.387h-.47l-3.922 8.73c-.776 1.729-2.509 1.886-2.509 1.886h-5.707v-18h6.02zm33.418 8.554c-.84 2.38-3.477 4.084-6.397 4.084h-6.314v5.362h-5.726v-9.446h18.437z" fill="#0F754E"/><path d="M59.531 3.003H46.915c.3 4.007 3.751 7.438 7.324 7.438H66.05c.682-3.33-1.665-7.438-6.519-7.438z" fill="url(#paint0_linear_1488_2630)"/></g><defs><linearGradient id="paint0_linear_1488_2630" x1="66.166" y1="7.682" x2="46.915" y2="7.682" gradientUnits="userSpaceOnUse"><stop stop-color="#1F5CD7"/><stop offset="1" stop-color="#02AEFF"/></linearGradient><clipPath id="clip0_1488_2630"><path fill="#fff" transform="translate(.166)" d="M0 0h66v24H0z"/></clipPath></defs></svg>