<svg width="89" height="32" fill="none" xmlns="http://www.w3.org/2000/svg"><g clip-path="url(#clip0_1284_2464)" fill-rule="evenodd" clip-rule="evenodd"><path d="M8.805 4.004C9.59 4 11.927 3.79 12.917 7.13c.667 2.25 1.729 5.936 3.186 11.057h.593c1.563-5.4 2.637-9.085 3.221-11.057 1-3.375 3.5-3.125 4.5-3.125h7.715v24H24.27V13.86h-.528l-4.383 14.144H13.44L9.058 13.85H8.53v14.154H.667v-24h8.138zm34.62 0v14.154h.627L49.383 6.52c1.035-2.316 3.24-2.515 3.24-2.515h7.61v24h-8.027V13.85h-.628l-5.226 11.64c-1.035 2.306-3.346 2.515-3.346 2.515h-7.61v-24h8.028zM87.981 15.41c-1.12 3.173-4.636 5.446-8.53 5.446h-8.418v7.15H63.4V15.408h24.582z" fill="#0F754E"/><path d="M79.82 4.004H63c.4 5.343 5.002 9.917 9.765 9.917h15.748c.91-4.44-2.22-9.917-8.692-9.917z" fill="url(#paint0_linear_1284_2464)"/></g><defs><linearGradient id="paint0_linear_1284_2464" x1="88.667" y1="10.242" x2="62.999" y2="10.242" gradientUnits="userSpaceOnUse"><stop stop-color="#1F5CD7"/><stop offset="1" stop-color="#02AEFF"/></linearGradient><clipPath id="clip0_1284_2464"><path fill="#fff" transform="translate(.667)" d="M0 0h88v32H0z"/></clipPath></defs></svg>