<svg width="87" height="24" fill="none" xmlns="http://www.w3.org/2000/svg"><g clip-path="url(#clip0_1488_2632)"><path d="M22.015 4.655c.582.727 1.018 1.527 1.382 2.4l-10.691 8-4.436-2.91V8.729l4.436 2.836 9.309-6.91z" fill="#21A038"/><path d="M3.688 11.928v-.437l-2.69-.218v.582c0 1.527.29 3.127.872 4.582a11.493 11.493 0 002.545 3.854l1.891-1.963a8.86 8.86 0 01-1.963-2.982 9.212 9.212 0 01-.655-3.418z" fill="url(#paint0_linear_1488_2632)"/><path d="M12.707 2.764h.436L13.288 0h-.582C11.18 0 9.652.29 8.27.873c-1.454.582-2.69 1.454-3.782 2.545L6.38 5.382c.8-.873 1.818-1.527 2.91-1.964a9.212 9.212 0 013.418-.654z" fill="url(#paint1_linear_1488_2632)"/><path d="M12.706 21.018h-.436l-.146 2.764h.582c1.527 0 3.054-.291 4.509-.873 1.454-.582 2.69-1.455 3.782-2.546L19.106 18.4c-.873.873-1.818 1.527-2.91 1.963a9.311 9.311 0 01-3.49.655z" fill="url(#paint2_linear_1488_2632)"/><path d="M17.797 4.364l2.255-1.673C18.015.945 15.396 0 12.706 0v2.764c1.818 0 3.636.509 5.091 1.6z" fill="url(#paint3_linear_1488_2632)"/><path d="M24.488 11.927c0-.727-.073-1.454-.218-2.109l-2.546 1.819v.218c0 1.309-.29 2.545-.8 3.709a9.06 9.06 0 01-2.182 3.054l1.818 2.037c1.237-1.091 2.182-2.473 2.837-4 .727-1.455 1.09-3.128 1.09-4.728z" fill="#21A038"/><path d="M12.706 21.018c-1.237 0-2.473-.29-3.637-.8-1.163-.509-2.181-1.309-3.054-2.254l-2.036 1.818a11.767 11.767 0 003.927 2.91c1.527.654 3.127 1.017 4.727 1.017v-2.69h.073z" fill="url(#paint4_linear_1488_2632)"/><path d="M6.67 5.091L4.852 3.055c-1.237 1.09-2.182 2.472-2.837 4a12.446 12.446 0 00-1.018 4.872h2.691c0-1.309.29-2.545.8-3.709A8.67 8.67 0 016.67 5.091z" fill="url(#paint5_linear_1488_2632)"/><path d="M68.706 6.837l3.346-2.473h-11.2v14.909h11.272v-2.546h-8v-3.781h6.837v-2.473h-6.837V6.836h4.582zM53.287 10.11H49.36V6.836h6.255l3.345-2.473h-12.8v14.909h6.691c3.782 0 5.891-1.673 5.891-4.655 0-2.909-1.89-4.509-5.455-4.509zm-.581 6.617H49.36v-4.145h3.346c2.036 0 2.981.727 2.981 2.036 0 1.455-1.018 2.11-2.981 2.11zM80.343 4.291h-6.11v14.91h3.2v-4.22h2.91c3.927 0 6.327-2.035 6.327-5.38 0-3.274-2.4-5.31-6.328-5.31zm-.073 8.218h-2.837V6.836h2.837c2.036 0 3.2 1.019 3.2 2.837 0 1.818-1.164 2.836-3.2 2.836zM41.36 15.71c-.8.435-1.745.654-2.69.654-2.837 0-4.873-2.037-4.873-4.8 0-2.764 2.036-4.8 4.873-4.8 1.018 0 2.036.29 2.836.872l2.254-1.672-.145-.073c-1.31-1.164-3.055-1.745-5.091-1.745-2.182 0-4.145.727-5.527 2.036-.727.654-1.237 1.527-1.673 2.4-.364.945-.582 1.89-.582 2.909 0 1.018.146 1.964.582 2.91.364.944.945 1.744 1.673 2.472 1.382 1.382 3.345 2.182 5.527 2.182 2.255 0 4.218-.8 5.527-2.255l-2.036-1.527-.655.436z" fill="#21A038"/></g><defs><linearGradient id="paint0_linear_1488_2632" x1="4.986" y1="19.96" x2="1.952" y2="11.307" gradientUnits="userSpaceOnUse"><stop offset=".14" stop-color="#F1E813"/><stop offset=".3" stop-color="#E6E418"/><stop offset=".58" stop-color="#C9DA26"/><stop offset=".89" stop-color="#A2CC39"/></linearGradient><linearGradient id="paint1_linear_1488_2632" x1="5.192" y1="3.925" x2="12.848" y2="1.046" gradientUnits="userSpaceOnUse"><stop offset=".06" stop-color="#0FA7DF"/><stop offset=".54" stop-color="#0098F8"/><stop offset=".92" stop-color="#0290EA"/></linearGradient><linearGradient id="paint2_linear_1488_2632" x1="11.965" y1="22.117" x2="20.605" y2="20.191" gradientUnits="userSpaceOnUse"><stop offset=".12" stop-color="#A2CC39"/><stop offset=".28" stop-color="#86C239"/><stop offset=".87" stop-color="#219F38"/></linearGradient><linearGradient id="paint3_linear_1488_2632" x1="12.149" y1=".977" x2="19.543" y2="3.229" gradientUnits="userSpaceOnUse"><stop offset=".06" stop-color="#0290EA"/><stop offset=".79" stop-color="#0C89CA"/></linearGradient><linearGradient id="paint4_linear_1488_2632" x1="4.721" y1="19.512" x2="12.777" y2="22.482" gradientUnits="userSpaceOnUse"><stop offset=".13" stop-color="#F1E813"/><stop offset=".3" stop-color="#EAE616"/><stop offset=".53" stop-color="#D8DF1F"/><stop offset=".8" stop-color="#BAD52D"/><stop offset=".98" stop-color="#A2CC39"/></linearGradient><linearGradient id="paint5_linear_1488_2632" x1="1.95" y1="12.204" x2="5.249" y2="3.737" gradientUnits="userSpaceOnUse"><stop offset=".07" stop-color="#A2CC39"/><stop offset=".26" stop-color="#81C45E"/><stop offset=".92" stop-color="#0FA7DF"/></linearGradient><clipPath id="clip0_1488_2632"><path fill="#fff" transform="translate(.997)" d="M0 0h85.673v24H0z"/></clipPath></defs></svg>