<svg width="57" height="24" fill="none" xmlns="http://www.w3.org/2000/svg"><g clip-path="url(#clip0_1488_2521)"><path d="M36.882 3c-3.933 0-7.447 2.038-7.447 5.804 0 4.319 6.233 4.617 6.233 6.787 0 .913-1.047 1.73-2.835 1.73-2.538 0-4.434-1.142-4.434-1.142l-.812 3.8s2.185.966 5.085.966c4.3 0 7.683-2.139 7.683-5.969 0-4.563-6.258-4.853-6.258-6.867 0-.715.859-1.5 2.642-1.5 2.012 0 3.653.832 3.653.832l.794-3.67S39.4 3 36.882 3zM.904 3.277l-.095.554s1.654.303 3.144.907c1.919.692 2.055 1.096 2.378 2.348l3.521 13.573h4.72l7.271-17.382h-4.709l-4.672 11.818-1.906-10.017C10.38 3.93 9.496 3.277 8.41 3.277H.904zm22.833 0l-3.694 17.382h4.49l3.681-17.382h-4.477zm25.045 0c-1.083 0-1.657.58-2.078 1.593l-6.578 15.789h4.709l.91-2.632h5.738l.554 2.632h4.155L52.567 3.277h-3.785zm.612 4.696l1.396 6.523h-3.74l2.344-6.523z" fill="#1434CB"/></g><defs><clipPath id="clip0_1488_2521"><path fill="#fff" transform="translate(.809)" d="M0 0h55.383v24H0z"/></clipPath></defs></svg>