<svg width="57" height="18" fill="none" xmlns="http://www.w3.org/2000/svg"><path d="M36.882 0c-3.933 0-7.447 2.038-7.447 5.804 0 4.319 6.233 4.617 6.233 6.787 0 .913-1.047 1.73-2.835 1.73-2.538 0-4.434-1.142-4.434-1.142l-.812 3.8s2.185.966 5.085.966c4.3 0 7.683-2.139 7.683-5.969 0-4.563-6.258-4.853-6.258-6.867 0-.715.859-1.5 2.642-1.5 2.012 0 3.653.832 3.653.832l.794-3.67S39.4 0 36.882 0zM.904.277L.809.831s1.654.303 3.144.907c1.919.692 2.055 1.096 2.378 2.348l3.521 13.573h4.72L21.843.277h-4.709l-4.672 11.818-1.906-10.017C10.38.93 9.496.277 8.41.277H.904zm22.833 0l-3.694 17.382h4.49L28.214.277h-4.477zm25.045 0c-1.083 0-1.657.58-2.078 1.593l-6.578 15.789h4.709l.91-2.632h5.738l.554 2.632h4.155L52.567.277h-3.785zm.612 4.696l1.396 6.523h-3.74l2.344-6.523z" fill="#1434CB"/></svg>