<svg width="57" height="24" viewBox="0 0 57 24" fill="none" xmlns="http://www.w3.org/2000/svg">
<g clip-path="url(#clip0_1488_2581)">
<path d="M10.905 3.09493C11.5711 2.26179 12.0231 1.14314 11.9039 0C10.9288 0.0484845 9.73894 0.643285 9.05006 1.47708C8.43152 2.19109 7.88406 3.35659 8.02678 4.4518C9.12134 4.54675 10.2149 3.90469 10.905 3.09493Z" fill="black"/>
<path d="M11.8911 4.66552C10.3015 4.57084 8.94998 5.56768 8.19088 5.56768C7.43136 5.56768 6.26893 4.71324 5.01167 4.73627C3.37526 4.7603 1.85687 5.68554 1.02646 7.1571C-0.681547 10.1009 0.575717 14.4677 2.23666 16.8653C3.04326 18.0515 4.01534 19.3575 5.2962 19.3106C6.50641 19.2631 6.98076 18.527 8.45181 18.527C9.92179 18.527 10.3491 19.3106 11.6301 19.2869C12.9587 19.2631 13.7892 18.1001 14.5958 16.9128C15.5211 15.5606 15.8999 14.255 15.9237 14.1833C15.8999 14.1596 13.362 13.186 13.3385 10.2666C13.3145 7.82215 15.331 6.65944 15.4259 6.58734C14.2872 4.90314 12.5079 4.71324 11.8911 4.66552Z" fill="black"/>
<path d="M25.7322 1.35743C29.1871 1.35743 31.5929 3.73892 31.5929 7.20619C31.5929 10.6858 29.1376 13.0797 25.6456 13.0797H21.8204V19.1629H19.0566V1.35742H25.7322V1.35743ZM21.8204 10.7599H24.9916C27.3978 10.7599 28.7673 9.4644 28.7673 7.21857C28.7673 4.97298 27.3978 3.68965 25.0039 3.68965H21.8204V10.7599Z" fill="black"/>
<path d="M32.3154 15.4737C32.3154 13.2031 34.0553 11.8089 37.1403 11.6361L40.6937 11.4264V10.427C40.6937 8.98329 39.7189 8.11956 38.0904 8.11956C36.5477 8.11956 35.5852 8.85976 35.351 10.0198H32.8338C32.9818 7.6752 34.9806 5.94775 38.1889 5.94775C41.3354 5.94775 43.3465 7.61356 43.3465 10.2171V19.1631H40.7923V17.0284H40.7309C39.9783 18.4721 38.337 19.3851 36.6343 19.3851C34.0924 19.3851 32.3154 17.8057 32.3154 15.4737ZM40.6937 14.3015V13.2774L37.4978 13.4747C35.906 13.5859 35.0054 14.2892 35.0054 15.3997C35.0054 16.5348 35.9431 17.2752 37.3745 17.2752C39.2376 17.2752 40.6937 15.9919 40.6937 14.3015Z" fill="black"/>
<path d="M45.7579 23.9384V21.7789C45.955 21.8282 46.3991 21.8282 46.6214 21.8282C47.8553 21.8282 48.5217 21.3101 48.9287 19.9775C48.9287 19.9527 49.1633 19.1878 49.1633 19.1754L44.4746 6.18213H47.3616L50.6442 16.7446H50.6932L53.9758 6.18213H56.7891L51.9271 19.8416C50.817 22.9882 49.5337 24 46.8437 24C46.6214 24 45.955 23.9752 45.7579 23.9384Z" fill="black"/>
</g>
<defs>
<clipPath id="clip0_1488_2581">
<rect width="56.5764" height="24" fill="white" transform="translate(0.211914)"/>
</clipPath>
</defs>
</svg>
