<svg width="62" height="24" viewBox="0 0 62 24" fill="none" xmlns="http://www.w3.org/2000/svg">
<g clip-path="url(#clip0_1488_2583)">
<path d="M29.1313 11.6725V18.7485H26.8857V1.2749H32.8389C34.3476 1.2749 35.6342 1.77783 36.6868 2.78367C37.7628 3.78951 38.3008 5.01757 38.3008 6.46785C38.3008 7.95323 37.7628 9.18129 36.6868 10.1754C35.6459 11.1696 34.3593 11.6608 32.8389 11.6608H29.1313V11.6725ZM29.1313 3.42694V9.52046H32.8857C33.7746 9.52046 34.5231 9.21637 35.1079 8.61989C35.7044 8.0234 36.0084 7.29826 36.0084 6.47955C36.0084 5.67253 35.7044 4.95909 35.1079 4.3626C34.5231 3.74273 33.7863 3.43863 32.8857 3.43863H29.1313V3.42694Z" fill="#3C4043"/>
<path d="M44.1725 6.39795C45.8333 6.39795 47.1432 6.84239 48.1023 7.73127C49.0614 8.62016 49.5409 9.83653 49.5409 11.3804V18.7488H47.4005V17.0879H47.307C46.383 18.4564 45.1432 19.1347 43.5993 19.1347C42.2777 19.1347 41.1783 18.7487 40.2894 17.9651C39.4005 17.1815 38.9561 16.2108 38.9561 15.0412C38.9561 13.8014 39.4239 12.819 40.3596 12.0938C41.2952 11.357 42.5467 10.9944 44.1023 10.9944C45.4356 10.9944 46.535 11.24 47.3888 11.7313V11.2166C47.3888 10.433 47.0847 9.77804 46.4649 9.22834C45.845 8.67863 45.1198 8.40963 44.2894 8.40963C43.0379 8.40963 42.0438 8.93594 41.3186 10.0003L39.342 8.76051C40.4297 7.18157 42.0438 6.39795 44.1725 6.39795ZM41.2719 15.0763C41.2719 15.661 41.5175 16.1523 42.0204 16.5382C42.5116 16.9242 43.0964 17.123 43.7631 17.123C44.7105 17.123 45.5526 16.7722 46.2894 16.0704C47.0263 15.3687 47.4005 14.5499 47.4005 13.6026C46.6988 13.0529 45.728 12.7722 44.4765 12.7722C43.5643 12.7722 42.804 12.9944 42.1958 13.4271C41.5759 13.8833 41.2719 14.433 41.2719 15.0763Z" fill="#3C4043"/>
<path d="M61.751 6.78369L54.2657 24H51.9499L54.7335 17.9766L49.7979 6.78369H52.2423L55.7978 15.3684H55.8446L59.3066 6.78369H61.751Z" fill="#3C4043"/>
<path d="M20.1995 10.2456C20.1995 9.51341 20.134 8.81284 20.0124 8.13916H10.5996V11.9988L16.0206 11.9999C15.8007 13.2841 15.0931 14.3789 14.0089 15.1087V17.6127H17.2358C19.12 15.8689 20.1995 13.2911 20.1995 10.2456Z" fill="#4285F4"/>
<path d="M14.01 15.109C13.1117 15.7149 11.955 16.0693 10.6018 16.0693C7.98777 16.0693 5.77024 14.3079 4.97609 11.9336H1.64746V14.5161C3.29657 17.7886 6.68603 20.0342 10.6018 20.0342C13.3082 20.0342 15.5819 19.1441 17.2368 17.612L14.01 15.109Z" fill="#34A853"/>
<path d="M4.66271 10.0175C4.66271 9.35079 4.77382 8.70635 4.97615 8.10051V5.51807H1.64752C0.965653 6.87127 0.582031 8.39875 0.582031 10.0175C0.582031 11.6362 0.966822 13.1636 1.64752 14.5168L4.97615 11.9344C4.77382 11.3286 4.66271 10.6841 4.66271 10.0175Z" fill="#FABB05"/>
<path d="M10.6018 3.96489C12.079 3.96489 13.4018 4.47366 14.4462 5.4678L17.3058 2.61051C15.569 0.992977 13.3047 0 10.6018 0C6.6872 0 3.29657 2.2456 1.64746 5.51809L4.97609 8.10053C5.77024 5.72628 7.98777 3.96489 10.6018 3.96489Z" fill="#E94235"/>
</g>
<defs>
<clipPath id="clip0_1488_2583">
<rect width="61.1694" height="24" fill="white" transform="translate(0.582031)"/>
</clipPath>
</defs>
</svg>
