<svg width="40" height="24" viewBox="0 0 40 24" fill="none" xmlns="http://www.w3.org/2000/svg">
<g clip-path="url(#clip0_1488_2519)">
<path d="M25.083 2.56641H14.583V21.4352H25.083V2.56641Z" fill="#FF5F00"/>
<path d="M15.2503 12C15.2487 10.1828 15.6605 8.38903 16.4545 6.7545C17.2486 5.11998 18.4041 3.68753 19.8336 2.5656C18.0634 1.17415 15.9374 0.308826 13.6986 0.0685353C11.4598 -0.171756 9.19856 0.222674 7.17335 1.20676C5.14814 2.19084 3.44065 3.72488 2.24606 5.6335C1.05147 7.54213 0.417969 9.74835 0.417969 12C0.417969 14.2516 1.05147 16.4579 2.24606 18.3665C3.44065 20.2751 5.14814 21.8091 7.17335 22.7932C9.19856 23.7773 11.4598 24.1717 13.6986 23.9314C15.9374 23.6912 18.0634 22.8258 19.8336 21.4344C18.4041 20.3124 17.2486 18.88 16.4545 17.2455C15.6605 15.6109 15.2487 13.8172 15.2503 12V12Z" fill="#EB001B"/>
<path d="M39.2481 12C39.2481 14.2516 38.6147 16.4578 37.4202 18.3664C36.2257 20.2751 34.5182 21.8091 32.4931 22.7932C30.4679 23.7773 28.2067 24.1718 25.9679 23.9315C23.7292 23.6912 21.6032 22.8258 19.833 21.4344C21.2613 20.3113 22.4159 18.8786 23.2098 17.2444C24.0038 15.6101 24.4163 13.8169 24.4163 12C24.4163 10.1831 24.0038 8.38989 23.2098 6.75562C22.4159 5.12135 21.2613 3.68867 19.833 2.56561C21.6032 1.17415 23.7292 0.308821 25.9679 0.0685323C28.2067 -0.171756 30.4679 0.222691 32.4931 1.20679C34.5182 2.19088 36.2257 3.72492 37.4202 5.63355C38.6147 7.54218 39.2481 9.74839 39.2481 12V12Z" fill="#F79E1B"/>
<path d="M38.1032 19.4384V19.0521H38.259V18.9734H37.8623V19.0521H38.0181V19.4384H38.1032ZM38.8734 19.4384V18.9727H38.7518L38.6119 19.293L38.472 18.9727H38.3504V19.4384H38.4362V19.0871L38.5674 19.39H38.6564L38.7876 19.0863V19.4384H38.8734Z" fill="#F79E1B"/>
</g>
<defs>
<clipPath id="clip0_1488_2519">
<rect width="38.8301" height="24" fill="white" transform="translate(0.417969)"/>
</clipPath>
</defs>
</svg>
