<svg width="67" height="24" viewBox="0 0 67 24" fill="none" xmlns="http://www.w3.org/2000/svg">
<g clip-path="url(#clip0_1488_2630)">
<path fill-rule="evenodd" clip-rule="evenodd" d="M6.26925 3.00307C6.85888 2.99954 8.61125 2.84172 9.35352 5.34687C9.85352 7.03437 10.65 9.79857 11.7429 13.6395H12.188C13.3601 9.59013 14.1653 6.82592 14.6035 5.34687C15.3535 2.81562 17.2285 3.00312 17.9785 3.00312L23.7649 3.00313V21.0031H17.8673V10.3954H17.4718L14.1841 21.0031H9.74685L6.45918 10.3875H6.0637V21.0031H0.166016V3.00313L6.26925 3.00307ZM32.2339 3.00313V13.6187H32.7044L36.7035 4.88959C37.4798 3.15247 39.1344 3.00313 39.1344 3.00313H44.8416V21.0031H38.8207V10.3875H38.3502L34.4295 19.1167C33.6532 20.8459 31.9202 21.0031 31.9202 21.0031H26.213V3.00313H32.2339ZM65.6524 11.5568C64.8125 13.9368 62.1751 15.6412 59.255 15.6412H52.941V21.0031H47.2155V11.5568H65.6524Z" fill="#0F754E"/>
<path fill-rule="evenodd" clip-rule="evenodd" d="M59.531 3.00293H46.915C47.2153 7.01034 50.6664 10.4409 54.2389 10.4409H66.05C66.7316 7.11031 64.3852 3.00293 59.531 3.00293Z" fill="url(#paint0_linear_1488_2630)"/>
</g>
<defs>
<linearGradient id="paint0_linear_1488_2630" x1="66.1658" y1="7.68176" x2="46.915" y2="7.68176" gradientUnits="userSpaceOnUse">
<stop stop-color="#1F5CD7"/>
<stop offset="1" stop-color="#02AEFF"/>
</linearGradient>
<clipPath id="clip0_1488_2630">
<rect width="66" height="24" fill="white" transform="translate(0.166016)"/>
</clipPath>
</defs>
</svg>
