<svg width="87" height="24" viewBox="0 0 87 24" fill="none" xmlns="http://www.w3.org/2000/svg">
<g clip-path="url(#clip0_1488_2632)">
<path d="M22.015 4.65479C22.5968 5.38206 23.0332 6.18206 23.3968 7.05479L12.7059 15.0548L8.26953 12.1457V8.72751L12.7059 11.5639L22.015 4.65479Z" fill="#21A038"/>
<path d="M3.68798 11.9275C3.68798 11.782 3.68798 11.6366 3.68798 11.4911L0.99707 11.2729C0.99707 11.4911 0.99707 11.6366 0.99707 11.8548C0.99707 13.382 1.28798 14.982 1.8698 16.4366C2.45162 17.8911 3.32434 19.2002 4.41525 20.2911L6.30616 18.3275C5.43343 17.4548 4.77889 16.4366 4.34253 15.3457C3.90616 14.2548 3.68798 13.0911 3.68798 11.9275Z" fill="url(#paint0_linear_1488_2632)"/>
<path d="M12.7065 2.76364C12.8519 2.76364 12.9974 2.76364 13.1428 2.76364L13.2883 0C13.0701 0 12.9246 0 12.7065 0C11.1792 0 9.65192 0.290909 8.2701 0.872727C6.81555 1.45455 5.57919 2.32727 4.48828 3.41818L6.37919 5.38182C7.17919 4.50909 8.19737 3.85455 9.28828 3.41818C10.3792 2.98182 11.5428 2.76364 12.7065 2.76364Z" fill="url(#paint1_linear_1488_2632)"/>
<path d="M12.7058 21.0181C12.5604 21.0181 12.4149 21.0181 12.2695 21.0181L12.124 23.7817C12.3422 23.7817 12.4877 23.7817 12.7058 23.7817C14.2331 23.7817 15.7604 23.4908 17.2149 22.909C18.6695 22.3272 19.9058 21.4544 20.9968 20.3635L19.1058 18.3999C18.2331 19.2726 17.2877 19.9272 16.1968 20.3635C15.1058 20.7999 13.9422 21.0181 12.7058 21.0181Z" fill="url(#paint2_linear_1488_2632)"/>
<path d="M17.797 4.36364L20.0515 2.69091C18.0151 0.945455 15.397 0 12.7061 0V2.76364C14.5242 2.76364 16.3424 3.27273 17.797 4.36364Z" fill="url(#paint3_linear_1488_2632)"/>
<path d="M24.4876 11.9274C24.4876 11.2002 24.4149 10.4729 24.2695 9.81836L21.724 11.6365C21.724 11.7093 21.724 11.782 21.724 11.8547C21.724 13.1638 21.4331 14.4002 20.924 15.5638C20.4149 16.7274 19.6876 17.7456 18.7422 18.6184L20.5604 20.6547C21.7967 19.5638 22.7422 18.182 23.3967 16.6547C24.124 15.2002 24.4876 13.5274 24.4876 11.9274Z" fill="#21A038"/>
<path d="M12.7058 21.0184C11.4694 21.0184 10.2331 20.7275 9.06942 20.2184C7.90579 19.7093 6.88761 18.9093 6.01488 17.9639L3.97852 19.782C5.06942 21.0184 6.45124 22.0366 7.90579 22.6911C9.43306 23.3457 11.0331 23.7093 12.6331 23.7093V21.0184H12.7058Z" fill="url(#paint4_linear_1488_2632)"/>
<path d="M6.6698 5.09105L4.85162 3.05469C3.61525 4.1456 2.6698 5.52741 2.01525 7.05469C1.36071 8.58196 0.99707 10.2547 0.99707 11.9274H3.68798C3.68798 10.6183 3.97889 9.38196 4.48798 8.21832C4.99707 6.98196 5.72434 5.96378 6.6698 5.09105Z" fill="url(#paint5_linear_1488_2632)"/>
<path d="M68.7061 6.8365L72.0516 4.36377H60.8516V19.2729H72.1243V16.7274H64.1243V12.9456H70.9607V10.4729H64.1243V6.8365H68.7061Z" fill="#21A038"/>
<path d="M53.2874 10.1092H49.3602V6.8365H55.6147L58.9602 4.36377H46.1602V19.2729H52.8511C56.6329 19.2729 58.742 17.6001 58.742 14.6183C58.742 11.7092 56.8511 10.1092 53.2874 10.1092ZM52.7056 16.7274H49.3602V12.582H52.7056C54.742 12.582 55.6874 13.3092 55.6874 14.6183C55.6874 16.0729 54.6693 16.7274 52.7056 16.7274Z" fill="#21A038"/>
<path d="M80.3425 4.29102H74.2334V19.2001H77.4334V14.9819H80.3425C84.2698 14.9819 86.6698 12.9456 86.6698 9.60011C86.6698 6.32738 84.2698 4.29102 80.3425 4.29102ZM80.2698 12.5092H77.4334V6.83647H80.2698C82.3061 6.83647 83.4698 7.85465 83.4698 9.67283C83.4698 11.491 82.3061 12.5092 80.2698 12.5092Z" fill="#21A038"/>
<path d="M41.3604 15.7091C40.5604 16.1455 39.6149 16.3637 38.6695 16.3637C35.8331 16.3637 33.7967 14.3273 33.7967 11.5637C33.7967 8.80005 35.8331 6.76369 38.6695 6.76369C39.6876 6.76369 40.7058 7.0546 41.5058 7.63642L43.7604 5.96369L43.6149 5.89096C42.3058 4.72733 40.5604 4.14551 38.524 4.14551C36.3422 4.14551 34.3785 4.87278 32.9967 6.18187C32.2695 6.83642 31.7604 7.70915 31.324 8.58187C30.9604 9.52733 30.7422 10.4728 30.7422 11.491C30.7422 12.5091 30.8876 13.4546 31.324 14.4001C31.6876 15.3455 32.2695 16.1455 32.9967 16.8728C34.3785 18.2546 36.3422 19.0546 38.524 19.0546C40.7785 19.0546 42.7422 18.2546 44.0513 16.8001L42.0149 15.2728L41.3604 15.7091Z" fill="#21A038"/>
</g>
<defs>
<linearGradient id="paint0_linear_1488_2632" x1="4.98602" y1="19.9599" x2="1.95234" y2="11.3066" gradientUnits="userSpaceOnUse">
<stop offset="0.14" stop-color="#F1E813"/>
<stop offset="0.3" stop-color="#E6E418"/>
<stop offset="0.58" stop-color="#C9DA26"/>
<stop offset="0.89" stop-color="#A2CC39"/>
</linearGradient>
<linearGradient id="paint1_linear_1488_2632" x1="5.19228" y1="3.92487" x2="12.8481" y2="1.04604" gradientUnits="userSpaceOnUse">
<stop offset="0.06" stop-color="#0FA7DF"/>
<stop offset="0.54" stop-color="#0098F8"/>
<stop offset="0.92" stop-color="#0290EA"/>
</linearGradient>
<linearGradient id="paint2_linear_1488_2632" x1="11.9651" y1="22.1171" x2="20.6045" y2="20.1912" gradientUnits="userSpaceOnUse">
<stop offset="0.12" stop-color="#A2CC39"/>
<stop offset="0.28" stop-color="#86C239"/>
<stop offset="0.87" stop-color="#219F38"/>
</linearGradient>
<linearGradient id="paint3_linear_1488_2632" x1="12.149" y1="0.977236" x2="19.5427" y2="3.22866" gradientUnits="userSpaceOnUse">
<stop offset="0.06" stop-color="#0290EA"/>
<stop offset="0.79" stop-color="#0C89CA"/>
</linearGradient>
<linearGradient id="paint4_linear_1488_2632" x1="4.72128" y1="19.5116" x2="12.7767" y2="22.4822" gradientUnits="userSpaceOnUse">
<stop offset="0.13" stop-color="#F1E813"/>
<stop offset="0.3" stop-color="#EAE616"/>
<stop offset="0.53" stop-color="#D8DF1F"/>
<stop offset="0.8" stop-color="#BAD52D"/>
<stop offset="0.98" stop-color="#A2CC39"/>
</linearGradient>
<linearGradient id="paint5_linear_1488_2632" x1="1.94994" y1="12.2044" x2="5.24871" y2="3.73701" gradientUnits="userSpaceOnUse">
<stop offset="0.07" stop-color="#A2CC39"/>
<stop offset="0.26" stop-color="#81C45E"/>
<stop offset="0.92" stop-color="#0FA7DF"/>
</linearGradient>
<clipPath id="clip0_1488_2632">
<rect width="85.6727" height="24" fill="white" transform="translate(0.99707)"/>
</clipPath>
</defs>
</svg>
