<svg width="57" height="24" viewBox="0 0 57 24" fill="none" xmlns="http://www.w3.org/2000/svg">
<g clip-path="url(#clip0_1488_2521)">
<path d="M36.8817 3C32.9493 3 29.4351 5.03825 29.4351 8.80407C29.4351 13.1227 35.6676 13.421 35.6676 15.5906C35.6676 16.5041 34.6207 17.3219 32.8327 17.3219C30.2951 17.3219 28.3985 16.1793 28.3985 16.1793L27.5869 19.9794C27.5869 19.9794 29.7718 20.9446 32.6725 20.9446C36.9719 20.9446 40.355 18.8062 40.355 14.976C40.355 10.4126 34.0965 10.1231 34.0965 8.1094C34.0965 7.39378 34.9559 6.60969 36.7388 6.60969C38.7505 6.60969 40.3918 7.44069 40.3918 7.44069L41.186 3.77041C41.186 3.77041 39.4002 3 36.8817 3ZM0.903813 3.277L0.808594 3.83101C0.808594 3.83101 2.46297 4.13378 3.953 4.73776C5.87155 5.43034 6.00822 5.83352 6.33133 7.08579L9.85229 20.6589H14.5721L21.8435 3.277H17.1344L12.4622 15.095L10.5556 5.07752C10.3808 3.93102 9.49511 3.277 8.41101 3.277H0.903813ZM23.737 3.277L20.0429 20.6589H24.5334L28.2145 3.277H23.737ZM48.7819 3.277C47.6991 3.277 47.1254 3.85672 46.7044 4.86977L40.1256 20.6589H44.8347L45.7457 18.0274H51.4827L52.0367 20.6589H56.1918L52.5669 3.277H48.7819ZM49.3944 7.97306L50.7902 14.4956H47.0507L49.3944 7.97306Z" fill="#1434CB"/>
</g>
<defs>
<clipPath id="clip0_1488_2521">
<rect width="55.3832" height="24" fill="white" transform="translate(0.808594)"/>
</clipPath>
</defs>
</svg>
